<?xml version="1.0" standalone="no"?><!DOCTYPE svg PUBLIC "-//W3C//DTD SVG 1.1//EN" "http://www.w3.org/Graphics/SVG/1.1/DTD/svg11.dtd"><svg t="1698763768391" class="icon" viewBox="0 0 1024 1024" version="1.1" xmlns="http://www.w3.org/2000/svg" p-id="1563" xmlns:xlink="http://www.w3.org/1999/xlink" width="32" height="32"><path d="M837.9 157.5v696.1L542.1 696.2c-13.9-7.4-29.6-11.3-45.4-11.3-17 0-33.7 4.5-48.3 12.9L186.1 849.5v-692h651.8m23.4-59.3H162.7c-19.8 0-35.9 15.3-35.9 34.1v759.3c0 20 17.2 34.1 35.9 34.1 6.2 0 12.6-1.6 18.6-5L478 749.1c5.7-3.3 12.2-5 18.7-5 6 0 12.1 1.4 17.5 4.3l329.5 175.4c5.7 3 11.7 4.4 17.5 4.4 18.8 0 35.9-14.3 35.9-34.1V132.3c0-18.8-16-34.1-35.8-34.1z" p-id="1564"></path><path d="M523.6 239.5h-59.2V358H345.9v59.3h118.5v118.5h59.2V417.3h118.5V358H523.6V239.5z" p-id="1565"></path></svg>