<?xml version="1.0" standalone="no"?><!DOCTYPE svg PUBLIC "-//W3C//DTD SVG 1.1//EN" "http://www.w3.org/Graphics/SVG/1.1/DTD/svg11.dtd"><svg t="1698763809074" class="icon" viewBox="0 0 1024 1024" version="1.1" xmlns="http://www.w3.org/2000/svg" p-id="1455" xmlns:xlink="http://www.w3.org/1999/xlink" width="32" height="32"><path d="M725.89095 490.820632 300.792159 490.820632c-15.789615 0-28.711925 12.905938-28.711925 28.741601 0 15.820314 12.922311 28.7723 28.711925 28.7723l425.188842 0c15.848966 0 28.741601-12.951987 28.741601-28.7723C754.722602 503.726569 741.830991 490.820632 725.89095 490.820632z" fill="#5F646E" p-id="1456"></path><path d="M835.211774 143.150304l-653.084249 0c-48.347125 0-87.675852 39.327704-87.675852 87.660502l0 562.392714c0 48.348148 39.328727 87.645153 87.675852 87.645153l653.084249 0c48.346101 0 87.674828-39.297005 87.674828-87.645153l0-49.083905 0-18.927071L922.886603 230.809783C922.886603 182.478008 883.558899 143.150304 835.211774 143.150304zM867.856265 725.399251l0 18.720364 0 44.797275c0 20.344351-16.558118 36.903491-36.932144 36.903491L186.47453 825.820382c-20.373003 0-36.932144-16.560164-36.932144-36.903491L149.542386 235.112786c0-20.314675 16.559141-36.888142 36.932144-36.888142l644.449591 0c20.374026 0 36.932144 16.573467 36.932144 36.888142L867.856265 725.399251z" fill="#5F646E" p-id="1457"></path><path d="M639.074675 649.552819 300.792159 649.552819c-15.789615 0-28.711925 12.893658-28.711925 28.711925 0 15.84999 12.922311 28.740578 28.800953 28.740578l338.193489 0c15.821337 0 28.741601-12.890588 28.741601-28.740578C667.815253 662.446477 654.894989 649.552819 639.074675 649.552819z" fill="#5F646E" p-id="1458"></path><path d="M725.981001 332.088444 300.792159 332.088444c-15.789615 0-28.711925 12.906961-28.711925 28.741601 0 15.805988 12.922311 28.712949 28.711925 28.712949l425.188842 0c15.848966 0 28.741601-12.906961 28.741601-28.712949C754.722602 344.995405 741.830991 332.088444 725.981001 332.088444z" fill="#5F646E" p-id="1459"></path></svg>