<?xml version="1.0" standalone="no"?><!DOCTYPE svg PUBLIC "-//W3C//DTD SVG 1.1//EN" "http://www.w3.org/Graphics/SVG/1.1/DTD/svg11.dtd"><svg t="1698763188869" class="icon" viewBox="0 0 1024 1024" version="1.1" xmlns="http://www.w3.org/2000/svg" p-id="1553" xmlns:xlink="http://www.w3.org/1999/xlink" width="32" height="32"><path d="M839.68 245.76c22.5792 0 40.96 18.3808 40.96 40.96v450.56c0 22.5792-18.3808 40.96-40.96 40.96H184.32c-22.5792 0-40.96-18.3808-40.96-40.96V286.72c0-22.5792 18.3808-40.96 40.96-40.96h655.36m0-40.96H184.32c-45.2608 0-81.92 36.6592-81.92 81.92v450.56c0 45.2608 36.6592 81.92 81.92 81.92h655.36c45.2608 0 81.92-36.6592 81.92-81.92V286.72c0-45.2608-36.6592-81.92-81.92-81.92z" fill="#231815" p-id="1554"></path><path d="M245.76 327.68c-11.3152 0-20.48 9.1648-20.48 20.48v327.68c0 11.3152 9.1648 20.48 20.48 20.48s20.48-9.1648 20.48-20.48V348.16c0-11.3152-9.1648-20.48-20.48-20.48z" fill="#231815" p-id="1555"></path></svg>