<?xml version="1.0" standalone="no"?><!DOCTYPE svg PUBLIC "-//W3C//DTD SVG 1.1//EN" "http://www.w3.org/Graphics/SVG/1.1/DTD/svg11.dtd"><svg t="1698763053490" class="icon" viewBox="0 0 1024 1024" version="1.1" xmlns="http://www.w3.org/2000/svg" p-id="4276" width="32" height="32" xmlns:xlink="http://www.w3.org/1999/xlink"><path d="M950.784 109.568H73.216C32.768 109.568 0 142.848 0 182.784v658.432c0 40.448 32.768 73.216 73.216 73.216h877.568c40.448 0 73.216-32.768 73.216-73.216V182.784c0-39.936-32.768-73.216-73.216-73.216z m0 694.784c0 18.432-14.848 36.352-36.352 36.352H109.568c-22.016 0-36.352-14.848-36.352-36.352V219.648c0-18.432 14.848-36.352 36.352-36.352h804.352c22.016 0 36.352 14.848 36.352 36.352v584.704z" fill="#333333" p-id="4277"></path><path d="M182.784 256c-22.016 0-36.352 14.848-36.352 36.352v292.352c0 18.432 14.848 36.352 36.352 36.352s36.352-14.848 36.352-36.352V292.352c0.512-17.92-14.336-36.352-36.352-36.352z m694.784 548.352c22.016 0 36.352-14.848 36.352-36.352v-146.432l-182.784 182.784h146.432z" fill="#333333" p-id="4278"></path></svg>