<?xml version="1.0" standalone="no"?><!DOCTYPE svg PUBLIC "-//W3C//DTD SVG 1.1//EN" "http://www.w3.org/Graphics/SVG/1.1/DTD/svg11.dtd"><svg t="1698763312307" class="icon" viewBox="0 0 1024 1024" version="1.1" xmlns="http://www.w3.org/2000/svg" p-id="3352" xmlns:xlink="http://www.w3.org/1999/xlink" width="32" height="32"><path d="M812.032 925.184c27.136-1.024 50.176 19.968 51.2 47.104 1.024 27.136-19.968 50.176-47.104 51.2H209.92c-27.136-1.024-48.128-24.064-47.104-51.2 1.024-25.6 21.504-46.08 47.104-47.104h602.112z m0-924.672c27.136 0 48.64 21.504 49.152 48.64v380.416c0 241.664-126.464 389.12-350.208 389.12-221.184 0-347.648-144.384-350.208-381.952V49.664c0-27.136 21.504-49.664 48.64-49.664s49.664 21.504 49.664 48.64v380.416c0 94.72 22.016 168.448 64 217.088 41.472 48.128 103.936 73.728 187.904 73.728s146.432-25.6 187.904-73.728c41.472-48.128 63.488-120.32 64-214.016V49.664c0-27.136 22.016-49.152 49.152-49.152z" p-id="3353"></path></svg>