<?xml version="1.0" standalone="no"?><!DOCTYPE svg PUBLIC "-//W3C//DTD SVG 1.1//EN" "http://www.w3.org/Graphics/SVG/1.1/DTD/svg11.dtd"><svg t="1698763882560" class="icon" viewBox="0 0 1024 1024" version="1.1" xmlns="http://www.w3.org/2000/svg" p-id="1461" xmlns:xlink="http://www.w3.org/1999/xlink" width="32" height="32"><path d="M320 832a320 320 0 0 1 0-640h384a320 320 0 0 1 0 640zM704 256H320a256 256 0 0 0 0 512h384a256 256 0 0 0 0-512z" fill="#2c2c2c" p-id="1462"></path><path d="M320 704a192 192 0 1 1 192-192 192 192 0 0 1-192 192z m0-320a128 128 0 1 0 128 128 128 128 0 0 0-128-128z" fill="#2c2c2c" p-id="1463"></path></svg>