<?xml version="1.0" standalone="no"?><!DOCTYPE svg PUBLIC "-//W3C//DTD SVG 1.1//EN" "http://www.w3.org/Graphics/SVG/1.1/DTD/svg11.dtd"><svg t="1698763395941" class="icon" viewBox="0 0 1024 1024" version="1.1" xmlns="http://www.w3.org/2000/svg" p-id="1457" xmlns:xlink="http://www.w3.org/1999/xlink" width="32" height="32"><path d="M147.911111 557.226667m42.666667 0l455.111111 0q42.666667 0 42.666667 42.666666l0 113.777778q0 42.666667-42.666667 42.666667l-455.111111 0q-42.666667 0-42.666667-42.666667l0-113.777778q0-42.666667 42.666667-42.666666Z" p-id="1458"></path><path d="M733.866667 351.004444m21.333333 0l99.555556 0q21.333333 0 21.333333 21.333334l0 0q0 21.333333-21.333333 21.333333l-99.555556 0q-21.333333 0-21.333333-21.333333l0 0q0-21.333333 21.333333-21.333334Z" p-id="1459"></path><path d="M826.026667 301.226667m0 21.333333l0 99.555556q0 21.333333-21.333334 21.333333l0 0q-21.333333 0-21.333333-21.333333l0-99.555556q0-21.333333 21.333333-21.333333l0 0q21.333333 0 21.333334 21.333333Z" p-id="1460"></path><path d="M733.866667 635.448889m21.333333 0l99.555556 0q21.333333 0 21.333333 21.333333l0 0q0 21.333333-21.333333 21.333334l-99.555556 0q-21.333333 0-21.333333-21.333334l0 0q0-21.333333 21.333333-21.333333Z" p-id="1461"></path><path d="M647.68 267.662222H188.871111a40.96 40.96 0 0 0-40.96 40.96V426.666667a40.96 40.96 0 0 0 40.96 40.96h458.808889A40.96 40.96 0 0 0 688.355556 426.666667v-118.044445a40.96 40.96 0 0 0-40.675556-40.96z m-1.706667 139.946667a16.497778 16.497778 0 0 1-16.497777 16.497778H207.075556a16.497778 16.497778 0 0 1-16.497778-16.497778v-80.782222a16.497778 16.497778 0 0 1 16.497778-16.497778h422.4a16.497778 16.497778 0 0 1 16.497777 16.497778z" p-id="1462"></path></svg>