<?xml version="1.0" standalone="no"?><!DOCTYPE svg PUBLIC "-//W3C//DTD SVG 1.1//EN" "http://www.w3.org/Graphics/SVG/1.1/DTD/svg11.dtd"><svg t="1698763480694" class="icon" viewBox="0 0 1024 1024" version="1.1" xmlns="http://www.w3.org/2000/svg" p-id="1590" xmlns:xlink="http://www.w3.org/1999/xlink" width="32" height="32"><path d="M896 170.667c12.8 0 21.333 8.533 21.333 21.333v640c0 12.8-8.533 21.333-21.333 21.333H128c-12.8 0-21.333-8.533-21.333-21.333V192c0-12.8 8.533-21.333 21.333-21.333h768m0-64H128c-46.933 0-85.333 38.4-85.333 85.333v640c0 46.933 38.4 85.333 85.333 85.333h768c46.933 0 85.333-38.4 85.333-85.333V192c0-46.933-38.4-85.333-85.333-85.333z" p-id="1591"></path><path d="M298.667 298.667c-36.267 0-64 27.733-64 64s27.733 64 64 64 64-27.734 64-64-27.734-64-64-64z m-85.334 480c-17.066 0-32-14.934-32-32 0-4.267 0-6.4 2.134-10.667 4.266-14.933 49.066-138.667 119.466-187.733 44.8-29.867 108.8-6.4 177.067 17.066 42.667 14.934 102.4 36.267 121.6 25.6s23.467-38.4 29.867-76.8 12.8-91.733 51.2-132.266c34.133-34.134 78.933-53.334 128-55.467 17.066 0 32 12.8 34.133 29.867 0 17.066-12.8 32-29.867 34.133-32 0-61.866 12.8-85.333 36.267s-27.733 57.6-34.133 93.866c-6.4 42.667-12.8 93.867-57.6 123.734s-108.8 6.4-177.067-17.067c-42.667-14.933-102.4-36.267-121.6-25.6-44.8 29.867-83.2 121.6-93.867 153.6-4.266 14.933-17.066 23.467-32 23.467z" p-id="1592"></path></svg>