<?xml version="1.0" standalone="no"?><!DOCTYPE svg PUBLIC "-//W3C//DTD SVG 1.1//EN" "http://www.w3.org/Graphics/SVG/1.1/DTD/svg11.dtd"><svg t="1698763732352" class="icon" viewBox="0 0 1100 1024" version="1.1" xmlns="http://www.w3.org/2000/svg" p-id="1456" xmlns:xlink="http://www.w3.org/1999/xlink" width="34.375" height="32"><path d="M1043.2 172.8c-25.6-25.6-60.8-41.6-99.2-41.6H499.2L345.6 9.6l-12.8-9.6H134.4C70.4 0 16 54.4 16 121.6v764.8c0 38.4 16 73.6 41.6 99.2 25.6 22.4 60.8 38.4 99.2 38.4h790.4c38.4 0 73.6-16 99.2-41.6 25.6-25.6 41.6-60.8 41.6-99.2V272c-3.2-38.4-16-73.6-44.8-99.2zM134.4 51.2h179.2L480 182.4h464c48 0 86.4 38.4 86.4 86.4v150.4H67.2V121.6c0-38.4 32-70.4 67.2-70.4z m809.6 921.6H156.8c-48 0-86.4-38.4-86.4-86.4V476.8h963.2v409.6c0 48-38.4 86.4-89.6 86.4z" p-id="1457"></path></svg>