<?xml version="1.0" standalone="no"?><!DOCTYPE svg PUBLIC "-//W3C//DTD SVG 1.1//EN" "http://www.w3.org/Graphics/SVG/1.1/DTD/svg11.dtd"><svg t="1698763843139" class="icon" viewBox="0 0 1063 1024" version="1.1" xmlns="http://www.w3.org/2000/svg" p-id="1448" xmlns:xlink="http://www.w3.org/1999/xlink" width="33.21875" height="32"><path d="M879.319102 135.084035C763.887234 16.225837 614.428367 0 536.922425 0c-24.968886 0-42.533749 1.65409-49.110727 2.126687C460.952424 3.93831 170.817121 30.561286 39.986461 321.208569c-130.791277 290.647283 103.538172 539.351563 103.538171 539.351563C315.313717 1004.662898 411.3691 1023.960617 503.289257 1023.960617c23.157263 0 45.999462-1.181493 69.786854-1.969155 118.031153-3.780778 116.377062-68.408446 121.142418-83.689089 4.725972-15.24126-37.335179-60.728741-58.129457-144.260298-20.83366-83.492173 64.982116-117.716088 166.787432-140.36137 14.492981-3.30818 28.749663-4.332141 42.80943-4.332141 35.05096 0 68.21153 7.246491 98.300219 7.24649 42.100535 0 78.254221-14.177916 105.349794-82.350063 54.348679-136.501827-55.648321-321.326718-170.016845-439.121573z m114.841121 417.539633c-10.082074 25.480866-19.494635 35.838622-25.559632 39.934464-3.780778 2.599285-9.609477 5.316719-24.496289 5.316719-11.184801 0-24.614438-1.575324-38.752971-3.071882-17.840545-1.969155-38.044075-4.213992-59.547248-4.213992-19.967232 0-38.280374 1.851006-55.924003 5.868082-75.57617 16.777201-158.083766 42.29745-196.127841 103.144341-19.730933 31.585247-25.087035 69.077959-15.201877 108.421676 13.784085 55.333256 35.169109 95.307104 49.425792 121.693781 1.811623 3.190031 3.702011 6.85266 5.356101 10.003308a17.998077 17.998077 0 0 1-4.489673 9.294411c-3.111265 3.032499-16.186454 12.996423-57.578093 14.335449l-20.557979 0.708896c-16.38337 0.590747-31.979078 1.181493-47.299104 1.181493-36.035537 0-76.442598-2.835583-127.680012-23.393562-55.175724-22.054536-117.597939-62.500981-190.614207-123.46602-10.082074-11.539248-55.845237-65.92731-89.16334-144.851045-21.266874-50.528518-33.27872-101.293335-35.759856-150.837275a383.040037 383.040037 0 0 1 33.987616-177.617784c26.780508-59.586631 63.13111-111.178493 108.067229-153.594093a480.513211 480.513211 0 0 1 125.907772-85.067497c83.57094-39.107419 155.878312-45.2118 163.833699-45.802546 1.063344-0.118149 2.244837-0.118149 3.702011-0.236299 7.600938-0.590747 21.857621-1.732856 41.115958-1.732856 48.047383 0 96.173532 7.049575 139.33741 20.32168 62.776662 19.258336 116.613361 51.788777 160.289219 96.685512A792.387985 792.387985 0 0 1 913.031036 267.805084a622.568055 622.568055 0 0 1 60.177378 103.616938c22.566517 50.055921 44.463521 122.087612 20.912426 181.162263z" fill="#2c2c2c" p-id="1449"></path><path d="M193.265489 558.846198c-41.391639 0-74.827891 33.633168-74.827892 75.024807C118.437597 675.262644 151.991999 708.895812 193.265489 708.895812c41.352256 0 74.906657-33.633168 74.906657-75.024807A74.906657 74.906657 0 0 0 193.265489 558.846198z m0 111.966155a36.901965 36.901965 0 0 1-36.70505-36.823199c0-20.242914 16.540902-36.823199 36.744433-36.823199 20.242914 0 36.744433 16.540902 36.744433 36.823199 0 20.282297-16.540902 36.823199-36.744433 36.823199z m23.472328-351.376024c-41.352256 0-74.867274 33.633168-74.867275 75.024807a74.906657 74.906657 0 0 0 149.734549 0 74.985424 74.985424 0 0 0-74.867274-75.024807z m0 111.848006a36.901965 36.901965 0 0 1-36.744433-36.823199c0-20.282297 16.540902-36.823199 36.744433-36.823199a36.823199 36.823199 0 1 1 0 73.646398zM399.396637 157.532403c-41.431022 0-74.827891 33.633168-74.827891 75.024806 0 41.391639 33.475636 75.024807 74.827891 75.024807 41.352256 0 74.827891-33.633168 74.827892-75.024807A74.906657 74.906657 0 0 0 399.43602 157.532403z m0 111.848005a36.901965 36.901965 0 0 1-36.744433-36.823199c0-20.282297 16.540902-36.823199 36.744433-36.823199a36.823199 36.823199 0 1 1 0 73.646398z m263.709242-92.944117c-41.470405 0-74.867274 33.633168-74.867274 75.024807a74.906657 74.906657 0 1 0 149.734549 0A74.827891 74.827891 0 0 0 663.105879 176.436291z m0 111.966155a36.901965 36.901965 0 0 1-36.783816-36.823199 36.823199 36.823199 0 1 1 36.744433 36.823199z m128.782739 73.055652c-41.352256 0-74.906657 33.633168-74.906657 75.024807a74.906657 74.906657 0 0 0 149.734549 0 74.985424 74.985424 0 0 0-74.827892-75.024807z m0 112.005538a36.901965 36.901965 0 0 1-36.783816-36.862582c0-20.242914 16.540902-36.823199 36.744433-36.823199 20.242914 0 36.744433 16.540902 36.744433 36.823199 0 20.282297-16.540902 36.862582-36.744433 36.862582z" fill="#2c2c2c" p-id="1450"></path></svg>